<?xml version="1.0" standalone="no"?>
<!DOCTYPE svg PUBLIC "-//W3C//DTD SVG 20010904//EN" "http://www.w3.org/TR/2001/REC-SVG-20010904/DTD/svg10.dtd">
<svg xmlns="http://www.w3.org/2000/svg" version="1.0" width="128.000000pt" height="128.000000pt" viewBox="0 0 128.000000 128.000000" preserveAspectRatio="xMidYMid meet">
<metadata>
Created by potrace 1.16, written by Peter Selinger 2001-2019
<meta name="Producer" content="Online-Convert"/></metadata>
<g transform="translate(0.000000,128.000000) scale(0.100000,-0.100000)" fill="#000000" stroke="none">
<path d="M0 640 l0 -640 640 0 640 0 0 640 0 640 -640 0 -640 0 0 -640z m716 126 c36 -80 44 -138 26 -196 -6 -19 -15 -51 -19 -70 -13 -53 -60 -80 -139 -80 l-62 0 -43 62 c-59 87 -59 134 2 247 33 60 48 79 59 75 39 -17 66 -14 100 9 19 14 36 26 38 26 2 1 19 -32 38 -73z m-295 -238 c59 -82 81 -127 75 -153 -10 -38 -38 -48 -88 -29 -24 8 -68 21 -98 27 l-55 12 1 60 c0 53 3 60 21 63 11 2 33 16 48 33 39 39 59 37 96 -13z"/>
</g>
</svg>
